Coordinates
version=1
nRows=40
nColumns=34
inDegrees=no

Units are S.I. units (second, meters, Newtons, ...)
If the header above contains a line with 'inDegrees', this indicates whether rotational values are in degrees (yes) or radians (no).

endheader
time	pelvis_tilt	pelvis_list	pelvis_rotation	pelvis_tx	pelvis_ty	pelvis_tz	hip_flexion_r	hip_adduction_r	hip_rotation_r	knee_angle_r	ankle_angle_r	subtalar_angle_r	mtp_angle_r	hip_flexion_l	hip_adduction_l	hip_rotation_l	knee_angle_l	ankle_angle_l	subtalar_angle_l	mtp_angle_l	lumbar_extension	lumbar_bending	lumbar_rotation	arm_flex_r	arm_add_r	arm_rot_r	elbow_flex_r	pro_sup_r	arm_flex_l	arm_add_l	arm_rot_l	elbow_flex_l	pro_sup_l
0.88	-0.00787765	0.0378164	-0.00884397	0.952444	0.964036	-0.249406	0.483832	-0.126737	-0.054981	0.852235	0.0750924	-0.135688	0	-0.00866611	0.111963	0.0702594	0.137403	0.228598	-0.0595327	0	-0.108098	-0.0509068	-0.129563	-0.151216	-0.108934	-0.146765	0.480064	2.09	0.140645	-0.17712	0.0219517	0.715143	2.09
0.89	-0.00887611	0.0336638	-0.00498128	0.963914	0.964095	-0.249675	0.491748	-0.119241	-0.061613	0.79505	0.0899551	-0.114153	0	-0.0262623	0.10719	0.0755093	0.128059	0.231219	-0.0613045	0	-0.109264	-0.0457646	-0.1327	-0.160042	-0.109958	-0.153768	0.472886	2.09	0.158452	-0.177458	0.0323873	0.73245	2.09
0.9	-0.00963331	0.0308441	-0.00103585	0.975471	0.963826	-0.249931	0.497317	-0.113778	-0.0691486	0.73572	0.105207	-0.0897264	0	-0.0439483	0.103897	0.0826468	0.119223	0.233238	-0.0659863	0	-0.110536	-0.0421219	-0.135486	-0.169266	-0.110504	-0.16282	0.467236	2.09	0.176236	-0.177814	0.0430805	0.748903	2.09
0.91	-0.0103068	0.0293394	0.00298553	0.98713	0.963224	-0.250168	0.500898	-0.110051	-0.0773357	0.674887	0.11992	-0.0631629	0	-0.06167	0.101954	0.0909713	0.110751	0.235122	-0.0724249	0	-0.111712	-0.0400056	-0.138259	-0.178534	-0.110856	-0.171773	0.462293	2.09	0.193567	-0.17821	0.0534292	0.764997	2.09
0.92	-0.010828	0.0290187	0.00712519	0.998906	0.962307	-0.250383	0.502583	-0.107882	-0.0864619	0.613238	0.134006	-0.0339722	0	-0.0796336	0.101137	0.100116	0.102459	0.237097	-0.079989	0	-0.112875	-0.0392795	-0.141141	-0.187771	-0.111032	-0.180345	0.457985	2.09	0.210296	-0.178665	0.06329	0.781038	2.09
0.93	-0.0109993	0.0297084	0.0114848	1.01081	0.961109	-0.250585	0.502404	-0.107421	-0.0979238	0.551716	0.148547	0.000365613	0	-0.0983286	0.101276	0.111357	0.0938697	0.238171	-0.0907616	0	-0.114269	-0.0397274	-0.144222	-0.196999	-0.110962	-0.188984	0.454612	2.09	0.22641	-0.179187	0.0727073	0.79718	2.09
0.94	-0.0111389	0.0311413	0.015873	1.02283	0.959635	-0.250725	0.501028	-0.107485	-0.109891	0.490954	0.161695	0.0357103	0	-0.116964	0.101927	0.12218	0.0858181	0.23997	-0.10097	0	-0.115539	-0.0411491	-0.147506	-0.206002	-0.110745	-0.196812	0.451952	2.09	0.241658	-0.179842	0.081284	0.81362	2.09
0.95	-0.011159	0.0330255	0.020305	1.03496	0.957927	-0.250794	0.498615	-0.1078	-0.122694	0.431817	0.174264	0.0726672	0	-0.13552	0.102772	0.132307	0.0785034	0.242615	-0.110148	0	-0.116839	-0.0432205	-0.151003	-0.214691	-0.110327	-0.204297	0.450248	2.09	0.256058	-0.180655	0.0891475	0.830247	2.09
0.96	-0.0111388	0.0350902	0.0247227	1.04715	0.956018	-0.250775	0.495452	-0.107832	-0.135679	0.374997	0.18624	0.109816	0	-0.153722	0.103532	0.141281	0.0722278	0.246297	-0.117633	0	-0.118121	-0.0456561	-0.154694	-0.222905	-0.109714	-0.211539	0.449512	2.09	0.269539	-0.181648	0.0963463	0.8469	2.09
0.97	-0.0112446	0.0370747	0.0289798	1.05941	0.95394	-0.250642	0.49173	-0.106668	-0.145995	0.320701	0.196302	0.141972	0	-0.171072	0.10394	0.147892	0.0675154	0.25173	-0.121548	0	-0.119214	-0.0481991	-0.158511	-0.230413	-0.108999	-0.218136	0.449437	2.09	0.28195	-0.18284	0.102852	0.863405	2.09
0.98	-0.0112373	0.0388347	0.0331249	1.07173	0.951749	-0.250418	0.48746	-0.10482	-0.155914	0.270137	0.205886	0.172004	0	-0.187934	0.103899	0.153152	0.0641249	0.258006	-0.123354	0	-0.120403	-0.0505899	-0.162402	-0.237199	-0.10814	-0.224894	0.450123	2.09	0.293307	-0.184129	0.108859	0.87952	2.09
0.99	-0.0110367	0.040431	0.0371452	1.08413	0.949478	-0.250137	0.483504	-0.103443	-0.171893	0.225943	0.217694	0.208671	0	-0.204241	0.103501	0.156517	0.0623397	0.265372	-0.121864	0	-0.121782	-0.052743	-0.166021	-0.243573	-0.106774	-0.234486	0.452171	2.09	0.303782	-0.185307	0.114794	0.894828	2.09
1	-0.0108832	0.0414324	0.040573	1.09663	0.947171	-0.249712	0.478865	-0.0990442	-0.175364	0.18532	0.22301	0.221773	0	-0.219712	0.102347	0.158258	0.0621329	0.272932	-0.118393	0	-0.122836	-0.0544391	-0.169934	-0.24825	-0.106439	-0.237809	0.452018	2.09	0.312201	-0.18654	0.118649	0.91016	2.09
1.01	-0.0101546	0.0419967	0.0435038	1.10927	0.944886	-0.24921	0.474232	-0.0942046	-0.179555	0.152251	0.228094	0.23125	0	-0.235011	0.100602	0.157959	0.063588	0.280725	-0.111822	0	-0.12433	-0.0555064	-0.17325	-0.252333	-0.105924	-0.242855	0.452333	2.09	0.319374	-0.187373	0.121705	0.924691	2.09
1.02	-0.00889764	0.0420579	0.0457723	1.12209	0.942651	-0.248625	0.469831	-0.0887908	-0.184171	0.127602	0.232823	0.236523	0	-0.249975	0.0982472	0.155413	0.0669237	0.28836	-0.102155	0	-0.126086	-0.0558745	-0.176005	-0.255617	-0.105628	-0.247613	0.452452	2.09	0.324908	-0.187726	0.123315	0.938597	2.09
1.03	-0.00708807	0.0414958	0.0472213	1.13511	0.9405	-0.247947	0.465719	-0.082726	-0.189345	0.111939	0.237378	0.23864	0	-0.264515	0.0951947	0.150257	0.0723527	0.295575	-0.0892047	0	-0.128037	-0.055386	-0.178041	-0.258138	-0.105636	-0.251904	0.452461	2.09	0.328592	-0.187522	0.123288	0.95188	2.09
1.04	-0.00482557	0.040165	0.0477097	1.14836	0.93845	-0.247158	0.461992	-0.0759374	-0.194936	0.105334	0.241703	0.239119	0	-0.278358	0.0913284	0.141966	0.0801545	0.302294	-0.0725533	0	-0.129989	-0.053873	-0.179202	-0.259957	-0.105982	-0.255773	0.45247	2.09	0.330223	-0.186749	0.121617	0.964489	2.09
1.05	-0.00233552	0.0379049	0.0471288	1.16184	0.936515	-0.24624	0.458744	-0.068309	-0.200162	0.107153	0.245072	0.238972	0	-0.29106	0.0864978	0.129917	0.0906403	0.30858	-0.0516038	0	-0.131628	-0.0511746	-0.179381	-0.2611	-0.106688	-0.259221	0.452421	2.09	0.329617	-0.185451	0.118394	0.976322	2.09
1.06	-2.41923e-05	0.0343947	0.045485	1.17553	0.934697	-0.245143	0.456316	-0.0596244	-0.205241	0.116379	0.24644	0.240341	0	-0.299614	0.0793612	0.0972696	0.108602	0.324943	0.000887179	0	-0.132511	-0.0470263	-0.17859	-0.261503	-0.107676	-0.26231	0.452099	2.09	0.326666	-0.18375	0.113677	0.987276	2.09
1.07	0.00186223	0.0297062	0.0426819	1.18944	0.933003	-0.243878	0.454242	-0.0494241	-0.204542	0.130262	0.242491	0.236293	0	-0.307227	0.0711334	0.0690682	0.127324	0.334149	0.0431543	0	-0.13229	-0.041502	-0.176752	-0.261221	-0.109082	-0.264488	0.451175	2.09	0.321305	-0.181627	0.107627	0.997066	2.09
1.08	0.00304434	0.0236256	0.0388019	1.20354	0.93145	-0.242404	0.452597	-0.0372238	-0.197157	0.146882	0.23154	0.22559	0	-0.311787	0.0606603	0.0335448	0.15023	0.343239	0.0944316	0	-0.130734	-0.0344542	-0.17392	-0.260199	-0.110772	-0.265885	0.449479	2.09	0.313659	-0.179099	0.100207	1.00546	2.09
1.09	0.00347674	0.0164893	0.0339305	1.21783	0.930071	-0.240752	0.451601	-0.023506	-0.185358	0.16539	0.214304	0.211354	0	-0.314612	0.0490348	0.00172159	0.174691	0.345576	0.137595	0	-0.127868	-0.0262246	-0.170184	-0.258461	-0.112698	-0.266526	0.447017	2.09	0.303924	-0.176031	0.0913427	1.01215	2.09
1.1	0.0029408	0.00757466	0.0282141	1.23225	0.928864	-0.238837	0.450739	-0.0065583	-0.164047	0.183127	0.188672	0.183813	0	-0.312164	0.0324004	-0.0501107	0.207308	0.352662	0.209747	0	-0.123559	-0.016149	-0.165297	-0.256317	-0.114341	-0.268542	0.444668	2.09	0.292549	-0.172324	0.0813586	1.01668	2.09
1.11	0.00216518	-8.71649e-05	0.0220721	1.24684	0.927958	-0.236991	0.451856	0.00693036	-0.155903	0.206011	0.168787	0.17868	0	-0.312234	0.0213651	-0.0631247	0.233646	0.336117	0.221585	0	-0.118725	-0.00718325	-0.160523	-0.253192	-0.116599	-0.267071	0.441289	2.09	0.279396	-0.167868	0.0694918	1.0192	2.09
1.12	0.000846295	-0.00843559	0.0156692	1.26154	0.927302	-0.235015	0.453265	0.0213938	-0.1448	0.229287	0.148821	0.168149	0	-0.307403	0.00693656	-0.0894575	0.267815	0.320865	0.253169	0	-0.113112	0.00252221	-0.155248	-0.249702	-0.11853	-0.266504	0.438671	2.09	0.26503	-0.162686	0.0564943	1.01934	2.09
1.13	-0.000266797	-0.0162515	0.00931686	1.27633	0.926971	-0.233044	0.454779	0.0344809	-0.13662	0.254779	0.135211	0.161408	0	-0.300105	-0.00735523	-0.11139	0.305971	0.298609	0.277503	0	-0.107676	0.0117792	-0.149665	-0.245933	-0.120096	-0.266806	0.437181	2.09	0.249937	-0.156946	0.0432215	1.01688	2.09
1.14	-0.00106381	-0.0235751	0.00322633	1.29116	0.926957	-0.231088	0.45592	0.0463441	-0.130468	0.281999	0.12941	0.156638	0	-0.289407	-0.0224122	-0.132494	0.3498	0.271034	0.299508	0	-0.102586	0.0205707	-0.143904	-0.241861	-0.121376	-0.267177	0.436699	2.09	0.234299	-0.150899	0.0301162	1.01184	2.09
1.15	-0.00112919	-0.0302176	-0.00242138	1.30598	0.927283	-0.22918	0.455642	0.0568694	-0.125856	0.309894	0.131845	0.153416	0	-0.275635	-0.0374137	-0.149013	0.3988	0.236464	0.312307	0	-0.0983989	0.0286784	-0.137933	-0.23748	-0.122339	-0.267521	0.437297	2.09	0.218531	-0.144824	0.0179543	1.00409	2.09
1.16	-0.000924518	-0.0366699	-0.00762338	1.32072	0.927879	-0.22728	0.453708	0.0668642	-0.122136	0.336791	0.140993	0.150934	0	-0.25754	-0.0538284	-0.164391	0.454152	0.196201	0.319759	0	-0.0946408	0.0365341	-0.131609	-0.23285	-0.123033	-0.267528	0.439031	2.09	0.202813	-0.138887	0.00705405	0.993547	2.09
1.17	-0.000525338	-0.0432274	-0.0123189	1.33531	0.928711	-0.225381	0.449371	0.0768896	-0.118735	0.360695	0.15455	0.14867	0	-0.235169	-0.0716644	-0.176796	0.514999	0.149153	0.317776	0	-0.0913294	0.0444102	-0.124829	-0.227967	-0.123497	-0.26709	0.442103	2.09	0.187495	-0.133173	-0.00233661	0.980098	2.09
1.18	-0.000221032	-0.0501654	-0.0164532	1.34971	0.929723	-0.223477	0.442383	0.0874057	-0.115362	0.380042	0.170096	0.146347	0	-0.208508	-0.0909573	-0.185397	0.580157	0.0948534	0.304263	0	-0.0882277	0.0525636	-0.117582	-0.222831	-0.123815	-0.266004	0.446661	2.09	0.172818	-0.127656	-0.0103553	0.963766	2.09
1.19	-0.000491736	-0.0575228	-0.0199315	1.36387	0.930831	-0.221594	0.433159	0.0984251	-0.112202	0.394183	0.185901	0.144259	0	-0.177538	-0.111245	-0.189323	0.647974	0.0335081	0.277623	0	-0.0848389	0.0610388	-0.109976	-0.217503	-0.124109	-0.264027	0.452771	2.09	0.158907	-0.122257	-0.0173022	0.944679	2.09
1.2	-0.0010791	-0.0652207	-0.0226795	1.37778	0.932014	-0.219757	0.42148	0.10987	-0.109091	0.402935	0.20088	0.142195	0	-0.143477	-0.132176	-0.189058	0.716241	-0.0320752	0.24061	0	-0.081502	0.0697368	-0.102129	-0.211895	-0.124541	-0.260607	0.460278	2.09	0.145884	-0.116981	-0.0234663	0.923211	2.09
1.21	-0.00219842	-0.0727058	-0.0246271	1.39143	0.933214	-0.21803	0.408184	0.12085	-0.106735	0.40728	0.215144	0.141308	0	-0.106841	-0.152295	-0.184066	0.782998	-0.097954	0.194117	0	-0.0779718	0.0781621	-0.093912	-0.20641	-0.12478	-0.25818	0.469949	2.09	0.133949	-0.111843	-0.0285127	0.899395	2.09
1.22	-0.00349696	-0.0797496	-0.0257846	1.40485	0.934458	-0.216441	0.393193	0.131178	-0.104625	0.407694	0.228279	0.140759	0	-0.0689045	-0.171275	-0.175658	0.846675	-0.156939	0.144324	0	-0.0745236	0.0859239	-0.0863945	-0.199882	-0.126377	-0.248082	0.478878	2.09	0.12232	-0.107019	-0.033935	0.87432	2.09
1.23	-0.00490513	-0.0854989	-0.0260528	1.41803	0.935738	-0.215064	0.377189	0.139556	-0.103646	0.405587	0.241138	0.141948	0	-0.0300223	-0.187101	-0.163196	0.906275	-0.204405	0.0907453	0	-0.0713054	0.0923059	-0.0789269	-0.193216	-0.128046	-0.238078	0.489396	2.09	0.111641	-0.102627	-0.0382468	0.847452	2.09
1.24	-0.00619247	-0.0896974	-0.0254289	1.43098	0.937093	-0.213917	0.360236	0.145646	-0.103866	0.401521	0.253799	0.144934	0	0.00922666	-0.19942	-0.147853	0.961177	-0.2361	0.0364427	0	-0.0685413	0.0969964	-0.0719183	-0.185952	-0.130218	-0.22587	0.500504	2.09	0.101634	-0.0988196	-0.041825	0.81919	2.09
1.25	-0.0072733	-0.0922097	-0.0239504	1.4437	0.938549	-0.212999	0.34243	0.149306	-0.10522	0.39583	0.266229	0.149651	0	0.0485112	-0.20806	-0.130692	1.01076	-0.251238	-0.0171581	0	-0.0663185	0.0998415	-0.0654872	-0.177941	-0.132878	-0.211698	0.511919	2.09	0.0921673	-0.095678	-0.0448099	0.789771	2.09
1.26	-0.00813493	-0.0930662	-0.0217429	1.45621	0.940125	-0.212284	0.323797	0.150676	-0.107431	0.38859	0.278262	0.155877	0	0.0875131	-0.213173	-0.112911	1.05426	-0.252035	-0.0688712	0	-0.0646307	0.100847	-0.0596334	-0.169106	-0.135934	-0.196142	0.523374	2.09	0.0830599	-0.0932308	-0.0474728	0.759533	2.09
1.27	-0.00881881	-0.0923975	-0.0190145	1.46853	0.941828	-0.211725	0.304347	0.150076	-0.110034	0.379762	0.289665	0.16322	0	0.125917	-0.215105	-0.0957006	1.09094	-0.242641	-0.117511	0	-0.0633895	0.100113	-0.0542277	-0.159449	-0.139265	-0.179835	0.534545	2.09	0.0741016	-0.0914738	-0.0501531	0.728913	2.09
